<svg width="72" height="72" viewBox="0 0 72 72" fill="none" xmlns="http://www.w3.org/2000/svg">
<path d="M39.1659 29.25V10.125C39.1659 8.63316 38.5732 7.20242 37.5183 6.14752C36.4634 5.09263 35.0327 4.5 33.5409 4.5C32.049 4.5 30.6183 5.09263 29.5634 6.14752C28.5085 7.20242 27.9159 8.63316 27.9159 10.125V44.2311L21.7487 33.5493C21.3797 32.909 20.8882 32.3476 20.3021 31.8973C19.716 31.447 19.0469 31.1166 18.3331 30.925C17.6193 30.7334 16.8747 30.6844 16.142 30.7807C15.4092 30.877 14.7026 31.1168 14.0625 31.4864C13.4224 31.8559 12.8615 32.348 12.4117 32.9344C11.9619 33.5209 11.632 34.1902 11.4411 34.9042C11.2501 35.6182 11.2017 36.3628 11.2986 37.0955C11.3955 37.8282 11.6359 38.5346 12.006 39.1743C21.1659 58.5 26.7395 65.25 39.1659 65.25C42.1206 65.25 45.0464 64.668 47.7762 63.5373C50.5061 62.4066 52.9864 60.7492 55.0758 58.6599C57.1651 56.5706 58.8224 54.0902 59.9532 51.3604C61.0839 48.6306 61.6659 45.7047 61.6659 42.75V31.5C61.6659 30.0082 61.0732 28.5774 60.0183 27.5225C58.9634 26.4676 57.5327 25.875 56.0409 25.875C54.549 25.875 53.1183 26.4676 52.0634 27.5225C51.0085 28.5774 50.4159 30.0082 50.4159 31.5" fill="white"/>
<path d="M39.1659 29.25V10.125C39.1659 8.63316 38.5732 7.20242 37.5183 6.14752C36.4634 5.09263 35.0327 4.5 33.5409 4.5C32.049 4.5 30.6183 5.09263 29.5634 6.14752C28.5085 7.20242 27.9159 8.63316 27.9159 10.125V44.2311L21.7487 33.5493C21.3797 32.909 20.8882 32.3476 20.3021 31.8973C19.716 31.447 19.0469 31.1166 18.3331 30.925C17.6193 30.7334 16.8747 30.6844 16.142 30.7807C15.4092 30.877 14.7026 31.1168 14.0625 31.4864C13.4224 31.8559 12.8615 32.348 12.4117 32.9344C11.9619 33.5209 11.632 34.1902 11.4411 34.9042C11.2501 35.6182 11.2017 36.3628 11.2986 37.0955C11.3955 37.8282 11.6359 38.5346 12.006 39.1743C21.1659 58.5 26.7395 65.25 39.1659 65.25C42.1206 65.25 45.0464 64.668 47.7762 63.5373C50.5061 62.4066 52.9864 60.7492 55.0758 58.6599C57.1651 56.5706 58.8224 54.0902 59.9532 51.3604C61.0839 48.6306 61.6659 45.7047 61.6659 42.75V31.5C61.6659 30.0082 61.0732 28.5774 60.0183 27.5225C58.9634 26.4676 57.5327 25.875 56.0409 25.875C54.549 25.875 53.1183 26.4676 52.0634 27.5225C51.0085 28.5774 50.4159 30.0082 50.4159 31.5" stroke="#2C2C2C" stroke-linecap="round" stroke-linejoin="round"/>
<path d="M50.5042 31.3289V27.9539C50.5042 26.462 49.9115 25.0313 48.8566 23.9764C47.8017 22.9215 46.371 22.3289 44.8792 22.3289C43.3873 22.3289 41.9566 22.9215 40.9017 23.9764C39.8468 25.0313 39.2542 26.462 39.2542 27.9539V29.0789" fill="white"/>
<path d="M50.5042 31.3289V27.9539C50.5042 26.462 49.9115 25.0313 48.8566 23.9764C47.8017 22.9215 46.371 22.3289 44.8792 22.3289C43.3873 22.3289 41.9566 22.9215 40.9017 23.9764C39.8468 25.0313 39.2542 26.462 39.2542 27.9539V29.0789" stroke="#2C2C2C" stroke-linecap="round" stroke-linejoin="round"/>
</svg>
