<svg width="36" height="24" viewBox="0 0 36 24" fill="none" xmlns="http://www.w3.org/2000/svg">
<path d="M19.572 23.1998C7.54553 23.1998 0.685815 14.7914 0.399994 0.799805H6.42423C6.6221 11.0693 11.0633 15.4192 14.5811 16.3161V0.799805H20.2536V9.65666C23.7274 9.27548 27.3771 5.23944 28.6084 0.799805H34.2808C33.8169 3.10233 32.892 5.28245 31.5642 7.20381C30.2363 9.12516 28.534 10.7464 26.5636 11.9662C28.763 13.0807 30.7056 14.6582 32.2632 16.5946C33.8208 18.531 34.9581 20.7823 35.6 23.1998H29.3559C28.7797 21.1 27.6086 19.2203 25.9894 17.7963C24.3702 16.3724 22.3749 15.4674 20.2536 15.195V23.1998H19.572Z" fill="white"/>
</svg>
